<svg xmlns="http://www.w3.org/2000/svg" xmlns:xlink="http://www.w3.org/1999/xlink" viewBox="0 0 152 67.14">
    <path d="M45.81,82.79c.65,22.9-20.6,26.78-30.94,26.78-4.8,0-8.4-2-10.25-1.94a2.31,2.31,0,0,0-1.94,1.94H2.12v-60c0-3.23-.27-4.16-2.12-4.43v-.74l8.77-1.94h.65V89.9c1.66-10.71,6.37-25.31,19.3-25.31C36.3,64.59,45.53,71.06,45.81,82.79ZM38.7,81.5c-.46-8-6.19-16.81-14-15.24-10.44,2-15.24,21.33-15.24,29.09v12.84A14.86,14.86,0,0,0,15,109C23.83,108.92,40,105.05,38.7,81.5Z" transform="translate(0 -42.43)" fill="#fff"/>
    <path d="M100.48,85.1c0,14.77-12.65,24.47-25,24.47S52.37,102,52.37,89.07c0-15.24,12.65-24.48,25-24.48S100.48,72.35,100.48,85.1Zm-7.75-3C89.49,71.06,80.81,63.21,70.28,66.26S56.89,80.85,60.12,92s11.92,19,22.45,15.89S96,93.32,92.73,82.14Z" transform="translate(0 -42.43)" fill="#fff"/>
    <path d="M151.92,94.33c-.55,6.56-6.37,15.24-19.48,15.24-12.75,0-25-6.28-25.4-21.52-.46-16,14-22.9,24.2-23.46,7.85-.37,18.65,3.42,19.94,14.6H142.6C147.86,80.57,152.66,85.93,151.92,94.33ZM138.81,79.19H114.89A26.65,26.65,0,0,0,115.54,94c3.41,9.7,10.34,14,19.76,13.58,7.94-.37,14.87-5.82,15.79-13C152.2,84.91,145.83,79.19,138.81,79.19Zm-23.74-.74h29.47c-1.2-8-8.41-14.5-17.46-12.75C120.8,66.9,116.74,72.17,115.07,78.45Z" transform="translate(0 -42.43)" fill="#fff"/>
</svg>
