<svg xmlns="http://www.w3.org/2000/svg" xmlns:xlink="http://www.w3.org/1999/xlink" viewBox="0 0 440 90.76">
  <defs>
    <linearGradient id="a" x1="-4.42" y1="228.62" x2="428.51" y2="307.07" gradientUnits="userSpaceOnUse">
      <stop offset="0" stop-color="#f79226"/>
      <stop offset="1" stop-color="#ee2d30"/>
    </linearGradient>
    <linearGradient id="b" x1="3.82" y1="183.15" x2="436.75" y2="261.61" xlink:href="#a"/>
    <linearGradient id="c" x1="-0.88" y1="209.06" x2="432.06" y2="287.52" xlink:href="#a"/>
    <linearGradient id="d" x1="0.32" y1="202.44" x2="433.26" y2="280.9" xlink:href="#a"/>
    <linearGradient id="e" x1="2.67" y1="189.48" x2="435.61" y2="267.94" xlink:href="#a"/>
    <linearGradient id="f" x1="4.3" y1="180.5" x2="437.23" y2="258.96" xlink:href="#a"/>
    <linearGradient id="g" x1="4.6" y1="178.85" x2="437.53" y2="257.31" xlink:href="#a"/>
    <linearGradient id="h" x1="6.35" y1="169.17" x2="439.29" y2="247.63" xlink:href="#a"/>
    <linearGradient id="i" x1="7.63" y1="162.13" x2="440.56" y2="240.59" xlink:href="#a"/>
    <linearGradient id="j" x1="9.11" y1="153.98" x2="442.04" y2="232.43" xlink:href="#a"/>
    <linearGradient id="k" x1="12.08" y1="137.56" x2="445.02" y2="216.02" xlink:href="#a"/>
  </defs>
  <g>
    <path d="M8.18,198.69v.64c1.74.28,2,1.2,2,4.41v38.4c0,15.16-2,18.46-10.2,22.32l.28.92c8.54-3.58,17.17-8.36,17.17-24.25V196.67h-.64Z" transform="translate(0 -174.62)" fill="url(#a)"/>
    <path d="M13.5,180.59a4.32,4.32,0,1,0,4.32,4.32A4.29,4.29,0,0,0,13.5,180.59Z" transform="translate(0 -174.62)" fill="url(#b)"/>
    <path d="M66.78,234.79V196.67h-.64l-8.63,2v.64c1.74.28,2,1.2,2,4.41v7.07c0,7.72-1.84,26.92-12.13,28.94-7.9,1.47-12-5.14-12-13.14V196.67h-.65l-8.63,2v.64c1.74.28,2,1.2,2,4.41v21.5c0,10.84,6.7,16.16,15.16,16.16,11.94,0,15.06-12.49,16.26-22.87v22.32H68.9v-.64C67.43,239.38,66.78,238,66.78,234.79Z" transform="translate(0 -174.62)" fill="url(#c)"/>
    <path d="M81.29,204.75c.46-3.77,4-7.26,10.2-7.26,5.24,0,11.12,5.7,14,13.51h.46l1.83-8.45c-3.67-2.85-9.92-5.88-14.7-5.88-10,0-13.32,5.42-14,11.39-2.21,18,29.85,12.67,28.11,24.71-.55,3.95-5.51,7.35-12.13,7.35-8.17,0-15.06-7.63-18.19-14.06h-.46l-1.92,9.19a28.7,28.7,0,0,0,17.91,6.15c10.29,0,17.09-5.42,17.64-12.67C111,213.75,80,217.06,81.29,204.75Z" transform="translate(0 -174.62)" fill="url(#d)"/>
    <path d="M137.33,239.75c-7.81,1-10-5.14-10-13.14V197.4h10.84v-.73H117.85c5.52-.28,12.5-5.52,12.5-12.59h-7.26c0,4.41-.64,12.59-8.45,12.59v.73h5.42v27.84c0,10.84,5,16.16,13.23,16.16,9.64,0,13.5-8,15.25-16.62l-.46-.19C146.42,231.67,143.39,238.92,137.33,239.75Z" transform="translate(0 -174.62)" fill="url(#e)"/>
    <path d="M178.94,196.67c-12.86,0-17.55,14.51-19.2,25.17V174.62h-.64l-8.73,1.93v.73c1.84.28,2.11,1.2,2.11,4.41V241.4H153c.18-.64.64-1.83,1.92-1.92,1.84-.1,5.42,1.92,10.2,1.92,10.29,0,31.42-3.85,30.78-26.64C195.66,203.1,186.47,196.67,178.94,196.67Zm-13.69,44.18a14.56,14.56,0,0,1-5.51-.82V227.26c0-7.72,4.78-26.92,15.16-28.94,7.81-1.56,13.5,7.16,14,15.16C190.15,236.9,174.07,240.76,165.25,240.85Z" transform="translate(0 -174.62)" fill="url(#f)"/>
    <path d="M227.35,196.67c-12.31,0-24.9,9.18-24.9,24.34,0,12.86,10.57,20.39,23,20.39s24.9-9.64,24.9-24.34C250.32,204.38,239.66,196.67,227.35,196.67Zm5.14,43.08C222,242.87,213.39,235,210.17,224s-.37-22.6,10.11-25.63,19.1,4.78,22.32,15.8S243,236.72,232.49,239.75Z" transform="translate(0 -174.62)" fill="url(#g)"/>
    <path d="M292.2,211.18h8.54c-1.28-11.11-12-14.88-19.84-14.51-10.1.55-24.53,7.44-24.07,23.33.37,15.16,12.59,21.4,25.26,21.4,13.05,0,18.84-8.63,19.39-15.15C302.21,217.89,297.44,212.56,292.2,211.18Zm-15.43-13.41c9-1.75,16.17,4.68,17.36,12.68H264.82C266.48,204.2,270.52,199,276.77,197.77Zm23.88,28.66c-.92,7.17-7.81,12.59-15.71,12.95-9.37.37-16.26-3.86-19.66-13.5a26.59,26.59,0,0,1-.64-14.7h23.79C295.42,211.18,301.75,216.88,300.65,226.43Z" transform="translate(0 -174.62)" fill="url(#h)"/>
    <path d="M330.6,196.67c-9.74,0-12.31,13.5-13.23,24.62V196.67h-.74l-8.63,2v.64c1.83.28,2.11,1.2,2.11,4.41v31c0,3.22-.64,4.59-2.11,5.42v.64h11.39v-.64c-1.38-.83-2-2.2-2-5.42v-3.58c0-7.81,1.19-31.51,10.19-32.89,5-.74,7.54,6.06,7.72,11.3l.64.37,5.61-7.9C338.4,198.41,335.56,196.67,330.6,196.67Z" transform="translate(0 -174.62)" fill="url(#i)"/>
    <path d="M378.82,211.18h8.55c-1.29-11.11-12-14.88-19.85-14.51-10.1.55-24.53,7.44-24.07,23.33.37,15.16,12.59,21.4,25.27,21.4,13,0,18.83-8.63,19.38-15.15C388.84,217.89,384.06,212.56,378.82,211.18Zm-15.43-13.41c9-1.75,16.17,4.68,17.36,12.68h-29.3C353.1,204.2,357.14,199,363.39,197.77Zm23.88,28.66c-.91,7.17-7.8,12.59-15.7,12.95-9.38.37-16.27-3.86-19.66-13.5a26.5,26.5,0,0,1-.65-14.7h23.8C382,211.18,388.38,216.88,387.27,226.43Z" transform="translate(0 -174.62)" fill="url(#j)"/>
    <path d="M437.43,234.79c-.37-3.4-1.2-13-2.21-22-1.1-11-7.53-16.16-15-16.16-11.94,0-15.16,12.49-16.26,22.78V174.62h-.74l-8.63,1.93v.73c1.84.28,2.11,1.2,2.11,4.41v53.1c0,3.22-.64,4.59-2.11,5.42v.64H406v-.64c-1.38-.83-2-2.2-2-5.42v-7.53c0-7.72,1.84-26.92,12.12-28.94,7.91-1.56,11.31,6.25,12,13.14.46,4.77,1.74,20.3,2.11,23.33s-.18,4.59-1.56,5.42v.64H440v-.64C438.62,239.38,437.8,238.1,437.43,234.79Z" transform="translate(0 -174.62)" fill="url(#k)"/>
    </g>
  </svg>