<svg xmlns="http://www.w3.org/2000/svg" xmlns:xlink="http://www.w3.org/1999/xlink" viewBox="0 0 93.94 39.12">
  <defs>
    <linearGradient id="a" data-name="New Gradient Swatch" x1="365.06" y1="-0.35" x2="461.02" y2="95.61" gradientUnits="userSpaceOnUse">
      <stop offset="0" stop-color="#ff931e"/>
      <stop offset="1" stop-color="#ff1d25"/>
    </linearGradient>
    <linearGradient id="b" x1="383.15" y1="-18.44" x2="479.12" y2="77.52" xlink:href="#a"/>
    <linearGradient id="c" x1="398.93" y1="-34.23" x2="494.9" y2="61.74" xlink:href="#a"/>
  </defs>
  <title>logo-short</title>
  <g>
    <path d="M398.47,21.22l.76-.37.81-.37v.05a14,14,0,0,1,5.79-1.27,12.8,12.8,0,0,1,5.35,1,10.94,10.94,0,0,1,4,3.22q3.33,4.06,3.33,10.84t-3.43,10.85a12,12,0,0,1-9.57,4.27,12.52,12.52,0,0,1-7.22-2c-.49-.36-.94-.69-1.37-1s-.85-.6-1.28-.93l-1.37,2.5a1.93,1.93,0,0,1-.56.54,1.28,1.28,0,0,1-.72.25h-4.51a1.42,1.42,0,0,1-1-.44,1.4,1.4,0,0,1-.44-1V11.84a1.4,1.4,0,0,1,.44-1,1.42,1.42,0,0,1,1-.44H397a1.42,1.42,0,0,1,1,.44,1.44,1.44,0,0,1,.44,1Zm.44,7.58a3.54,3.54,0,0,0-.44.22V39c.2.17.44.36.74.57s.64.45,1,.71h-.05a6.06,6.06,0,0,0,3.29,1,3.51,3.51,0,0,0,3.06-1.76A8.22,8.22,0,0,0,407.7,35a9,9,0,0,0-1.38-5.4,4.67,4.67,0,0,0-4-1.86,5.48,5.48,0,0,0-2.7.73A4,4,0,0,1,398.91,28.8Z" transform="translate(-387.04 -10.37)" fill="url(#a)"/>
    <path d="M447.7,45.56q-4.23,3.93-11.39,3.93T425,45.56q-4.26-4-4.27-10.8T425,23.92Q429.29,20,436.31,20t11.39,3.93q4.26,4,4.27,10.84T447.7,45.56Zm-7.51-15.09a4.93,4.93,0,0,0-3.88-1.55,4.86,4.86,0,0,0-3.83,1.55,6.26,6.26,0,0,0-1.37,4.29,6.27,6.27,0,0,0,1.37,4.3,4.86,4.86,0,0,0,3.83,1.54,4.92,4.92,0,0,0,3.88-1.54,6.27,6.27,0,0,0,1.37-4.3A6.26,6.26,0,0,0,440.19,30.47Z" transform="translate(-387.04 -10.37)" fill="url(#b)"/>
    <path d="M480.09,47a9.73,9.73,0,0,1-2,1,20.08,20.08,0,0,1-2.48.77,26.06,26.06,0,0,1-2.74.49,24.77,24.77,0,0,1-2.85.17q-7.22,0-11.53-4t-4.32-11.19A14.11,14.11,0,0,1,458,24.07,13,13,0,0,1,467.82,20a12.3,12.3,0,0,1,9.62,4.12q3.53,4,3.53,10.46v2.16a1.49,1.49,0,0,1-.41,1,1.36,1.36,0,0,1-1,.44h-14a4,4,0,0,0,.89,1.28Q467.92,41,471.5,41a13,13,0,0,0,3.39-.44l1.37-.4a3.66,3.66,0,0,0,.69-.24,1.32,1.32,0,0,1,1.1,0,1.48,1.48,0,0,1,.81.78l1.82,4.62Zm-15-15.36h5.1a6.14,6.14,0,0,0-.83-2.67,1.9,1.9,0,0,0-1.62-1,2.06,2.06,0,0,0-2,1.33A7,7,0,0,0,465.12,31.67Z" transform="translate(-387.04 -10.37)" fill="url(#c)"/>
  </g>
</svg>
