<svg xmlns="http://www.w3.org/2000/svg" xmlns:xlink="http://www.w3.org/1999/xlink" viewBox="0 0 272.38 49.08">
  <defs>
    <linearGradient id="a" data-name="New Gradient Swatch" x1="0.18" y1="33.44" x2="290.5" y2="33.44" gradientUnits="userSpaceOnUse">
      <stop offset="0" stop-color="#ff931e"/>
      <stop offset="1" stop-color="#ff1d25"/>
    </linearGradient>
    <linearGradient id="b" x1="0.18" y1="35.08" x2="290.5" y2="35.08" xlink:href="#a"/>
    <linearGradient id="c" x1="0.18" y1="34.76" x2="290.5" y2="34.76" xlink:href="#a"/>
    <linearGradient id="d" x1="0.18" y1="30.89" x2="290.5" y2="30.89" xlink:href="#a"/>
    <linearGradient id="e" x1="0.18" y1="29.93" x2="290.5" y2="29.93" xlink:href="#a"/>
    <linearGradient id="f" x1="0.18" y1="34.74" x2="290.5" y2="34.74" xlink:href="#a"/>
    <linearGradient id="h" x1="0.18" y1="34.47" x2="290.5" y2="34.47" xlink:href="#a"/>
    <linearGradient id="j" x1="0.18" y1="29.66" x2="290.5" y2="29.66" xlink:href="#a"/>
  </defs>
  <title>logo-long</title>
  <g>
    <path d="M21.07,19.6A1.23,1.23,0,0,1,22,20a1.59,1.59,0,0,1,.39,1.08V47Q22.39,58,11.84,58H8.65a1.16,1.16,0,0,1-.76-.32A1.74,1.74,0,0,1,7.37,57L5.65,51.79a1.45,1.45,0,0,1,.15-1.34A1.83,1.83,0,0,1,7,49.78l2.21-.44a3.58,3.58,0,0,0,2.13-1.08,3.85,3.85,0,0,0,.57-2.35V21.12A1.59,1.59,0,0,1,12.28,20a1.21,1.21,0,0,1,.93-.44Zm-7.78-9.45A5.57,5.57,0,0,1,17.14,8.9,5.59,5.59,0,0,1,21,10.15a4.43,4.43,0,0,1,1.4,3.46A4.44,4.44,0,0,1,21,17.05a5.5,5.5,0,0,1-3.85,1.27,5.49,5.49,0,0,1-3.85-1.27,4.41,4.41,0,0,1-1.4-3.44A4.39,4.39,0,0,1,13.29,10.15Z" transform="translate(-5.56 -8.9)" fill="url(#a)"/>
    <path d="M54.34,47.43a1.42,1.42,0,0,1-.42,1,1.34,1.34,0,0,1-1,.42H46.44a1.55,1.55,0,0,1-.81-.25,1,1,0,0,1-.52-.59l-.78-1.57a20.53,20.53,0,0,1-4.49,2.21,15.38,15.38,0,0,1-5.08.79q-4.77,0-7.14-2.58t-2.38-7.48V22.1a1.29,1.29,0,0,1,.44-1,1.44,1.44,0,0,1,1-.42H35.1a1.44,1.44,0,0,1,1,.42,1.29,1.29,0,0,1,.44,1V37.27c0,2.16.62,3.24,1.87,3.24a4.71,4.71,0,0,0,1-.13,9.47,9.47,0,0,0,1.4-.41h-.05c.43-.2.83-.37,1.21-.52s.72-.3,1-.46V22.1a1.33,1.33,0,0,1,.44-1,1.46,1.46,0,0,1,1-.42h8.4a1.43,1.43,0,0,1,1.42,1.42Z" transform="translate(-5.56 -8.9)" fill="url(#b)"/>
    <path d="M77.21,47.18q-3.09,2.35-8.59,2.36A35.66,35.66,0,0,1,63,49.12,30.55,30.55,0,0,1,58.17,48a1.45,1.45,0,0,1-.64-.44,1.35,1.35,0,0,1-.34-.74l-.64-6a1.42,1.42,0,0,1,.51-1.37,1.29,1.29,0,0,1,1.45-.1c.3.13.75.32,1.38.56s1.42.55,2.4.91a15.29,15.29,0,0,0,5.65,1.08,4.85,4.85,0,0,0,1.47-.17c.36-.11.54-.3.54-.56,0-.43-.45-.82-1.35-1.18s-2.12-.82-3.66-1.38v.05a22.18,22.18,0,0,1-4.81-2.45Q56.85,34,56.84,29.42a9.52,9.52,0,0,1,.84-4.13,7.71,7.71,0,0,1,2.65-3A11,11,0,0,1,64,20.56,17.64,17.64,0,0,1,68.62,20a17.43,17.43,0,0,1,2.38.17q1.2.18,2.31.42a19.23,19.23,0,0,1,2,.57c.62.21,1.16.41,1.62.61a1,1,0,0,1,.58.54,1.65,1.65,0,0,1,.25.83v5.79a1.37,1.37,0,0,1-.74,1.35,1.32,1.32,0,0,1-1.47-.17l-.86-.46c-.44-.25-1-.55-1.79-.91a9.21,9.21,0,0,0-4.12-1.08,2.27,2.27,0,0,0-1.18.27.75.75,0,0,0-.44.61c0,.46.43.91,1.3,1.35a45.51,45.51,0,0,0,4.34,1.79,14.38,14.38,0,0,1,5.5,3.41,7.46,7.46,0,0,1,2,5.33A8,8,0,0,1,77.21,47.18Z" transform="translate(-5.56 -8.9)" fill="url(#c)"/>
    <path d="M96.16,40.68a1,1,0,0,0,.88.47,6.65,6.65,0,0,0,2.21-.35c.65-.23,1.16-.42,1.52-.59a1.26,1.26,0,0,1,1.35.1,1.47,1.47,0,0,1,.61,1.28v5.84a1.63,1.63,0,0,1-.24.81,1,1,0,0,1-.59.51,6.19,6.19,0,0,1-1.25.44l-1.8.45c-.75.16-1.45.29-2.11.39a12.84,12.84,0,0,1-2,.15c-3.5,0-6-.68-7.63-2s-2.38-3.6-2.38-6.77V28.88h-4a1.36,1.36,0,0,1-1-.45,1.47,1.47,0,0,1-.44-1.08V22.1a1.47,1.47,0,0,1,1.42-1.47h4V14.54a1.48,1.48,0,0,1,.37-1,1.26,1.26,0,0,1,.86-.49l8.19-1.42a1.24,1.24,0,0,1,1.18.32,1.51,1.51,0,0,1,.49,1.15l0,7.51h5.5a1.34,1.34,0,0,1,1,.42,1.42,1.42,0,0,1,.42,1.05v5.25a1.49,1.49,0,0,1-.42,1.08,1.3,1.3,0,0,1-1,.45h-5.5v10.4A2.35,2.35,0,0,0,96.16,40.68Z" transform="translate(-5.56 -8.9)" fill="url(#d)"/>
    <path d="M115.3,21.22l.76-.37.81-.37v.05a14,14,0,0,1,5.79-1.27,12.8,12.8,0,0,1,5.35,1,10.91,10.91,0,0,1,4,3.22q3.34,4.06,3.34,10.84t-3.44,10.85a12,12,0,0,1-9.57,4.27,12.48,12.48,0,0,1-7.21-2l-1.38-1c-.42-.29-.85-.6-1.27-.93l-1.38,2.5a1.93,1.93,0,0,1-.56.54,1.25,1.25,0,0,1-.71.25h-4.52a1.5,1.5,0,0,1-1.47-1.47V11.84a1.5,1.5,0,0,1,1.47-1.47h8.49a1.52,1.52,0,0,1,1.48,1.47Zm.44,7.58a2.51,2.51,0,0,0-.44.22V39c.19.17.44.36.73.57l1,.71h0a6.09,6.09,0,0,0,3.29,1,3.53,3.53,0,0,0,3.07-1.76A8.22,8.22,0,0,0,124.52,35a9.06,9.06,0,0,0-1.37-5.4,4.7,4.7,0,0,0-4-1.86,5.54,5.54,0,0,0-2.7.73A4.34,4.34,0,0,1,115.74,28.8Z" transform="translate(-5.56 -8.9)" fill="url(#e)"/>
    <path d="M164.52,45.56q-4.22,3.93-11.39,3.93T141.8,45.56q-4.28-4-4.27-10.8t4.27-10.84Q146.12,20,153.13,20t11.39,3.93q4.28,4,4.27,10.84T164.52,45.56ZM157,30.47a4.92,4.92,0,0,0-3.88-1.55,4.84,4.84,0,0,0-3.82,1.55,6.21,6.21,0,0,0-1.38,4.29,6.22,6.22,0,0,0,1.38,4.3,4.84,4.84,0,0,0,3.82,1.54A4.91,4.91,0,0,0,157,39.06a6.22,6.22,0,0,0,1.38-4.3A6.21,6.21,0,0,0,157,30.47Z" transform="translate(-5.56 -8.9)" fill="url(#f)"/>
    <path d="M196.91,47a9.89,9.89,0,0,1-2,1,20.63,20.63,0,0,1-2.48.77,26.25,26.25,0,0,1-2.75.49,24.77,24.77,0,0,1-2.85.17q-7.22,0-11.53-4T171,34.27a14.08,14.08,0,0,1,3.88-10.2A12.94,12.94,0,0,1,184.64,20a12.3,12.3,0,0,1,9.62,4.12q3.54,4,3.54,10.46v2.16a1.46,1.46,0,0,1-.42,1,1.35,1.35,0,0,1-1,.44h-14a3.93,3.93,0,0,0,.88,1.28c1,1,2.67,1.47,5,1.47a13,13,0,0,0,3.39-.44l1.37-.4a3.66,3.66,0,0,0,.69-.24,1.34,1.34,0,0,1,1.11,0,1.54,1.54,0,0,1,.81.78l1.81,4.62Zm-15-15.36h5.11a6,6,0,0,0-.84-2.67,1.88,1.88,0,0,0-1.62-1,2.07,2.07,0,0,0-2,1.33A7,7,0,0,0,181.94,31.67Z" transform="translate(-5.56 -8.9)" fill="url(#f)"/>
    <path d="M201.33,48.9a1.32,1.32,0,0,1-1-.42,1.42,1.42,0,0,1-.41-1V22.1a1.34,1.34,0,0,1,.41-1,1.32,1.32,0,0,1,1-.42h5.74a1.38,1.38,0,0,1,.79.29,1.29,1.29,0,0,1,.49.69l1,3.39a15.07,15.07,0,0,1,3.46-3.71,6.39,6.39,0,0,1,3.8-1.3,3.81,3.81,0,0,1,1.67.37,6.39,6.39,0,0,1,1.4.88,6.89,6.89,0,0,1,1,1.08,5.3,5.3,0,0,1,.61,1l-2.06,8a1.41,1.41,0,0,1-1.08,1.13,1.31,1.31,0,0,1-1.42-.59c-.85-1.11-1.64-1.67-2.36-1.67a3,3,0,0,0-2,1.08,16.08,16.08,0,0,0-1.62,1.82V47.43a1.42,1.42,0,0,1-.42,1,1.34,1.34,0,0,1-1,.42Z" transform="translate(-5.56 -8.9)" fill="url(#h)"/>
    <path d="M245.79,47a9.4,9.4,0,0,1-2,1,20.63,20.63,0,0,1-2.48.77,25.79,25.79,0,0,1-2.75.49,24.77,24.77,0,0,1-2.85.17q-7.2,0-11.53-4t-4.32-11.19a14.08,14.08,0,0,1,3.88-10.2A13,13,0,0,1,233.53,20a12.3,12.3,0,0,1,9.61,4.12q3.54,4,3.54,10.46v2.16a1.46,1.46,0,0,1-.42,1,1.35,1.35,0,0,1-1,.44h-14a3.93,3.93,0,0,0,.88,1.28Q233.62,41,237.21,41a13,13,0,0,0,3.38-.44l1.38-.4a3.77,3.77,0,0,0,.68-.24,1.34,1.34,0,0,1,1.11,0,1.54,1.54,0,0,1,.81.78l1.81,4.62Zm-15-15.36h5.1A6.14,6.14,0,0,0,235.1,29a1.9,1.9,0,0,0-1.62-1,2.08,2.08,0,0,0-2,1.33A7.27,7.27,0,0,0,230.83,31.67Z" transform="translate(-5.56 -8.9)" fill="url(#f)"/>
    <path d="M268.08,48.9a1.52,1.52,0,0,1-1.48-1.47V31.77a5.76,5.76,0,0,0-.41-2.33,1.34,1.34,0,0,0-1.25-.91,7.29,7.29,0,0,0-3.24.79h.05c-.37.16-.68.31-.94.44l-.68.34V47.43a1.52,1.52,0,0,1-1.48,1.47h-8.39a1.36,1.36,0,0,1-1-.44,1.49,1.49,0,0,1-.41-1V11.89a1.49,1.49,0,0,1,.41-1,1.36,1.36,0,0,1,1-.44h8.39a1.52,1.52,0,0,1,1.48,1.47v9.77A16,16,0,0,1,264,19.92a15.09,15.09,0,0,1,4.32-.62q4.86,0,7.24,2.78t2.38,8V47.43a1.44,1.44,0,0,1-.44,1,1.42,1.42,0,0,1-1,.44Z" transform="translate(-5.56 -8.9)" fill="url(#j)"/>
  </g>
</svg>
